<svg xmlns="http://www.w3.org/2000/svg" viewBox="0 0 1200 800" fill="none">
  <defs>
    <linearGradient id="cyanViolet" x1="0" y1="0" x2="1" y2="1">
      <stop stop-color="#67e8f9" />
      <stop offset="0.55" stop-color="#60a5fa" />
      <stop offset="1" stop-color="#c084fc" />
    </linearGradient>
  </defs>

  <g stroke="url(#cyanViolet)" stroke-linecap="round" stroke-linejoin="round">
    <!-- Molecular structure -->
    <g stroke-width="3">
      <path d="M104 108l58-34 58 34v68l-58 34-58-34z" />
      <path d="M162 74V42m58 66 42-25m-42 93 42 25m-100 9v39m-58-73-42 25m42-93-42-25" />
      <circle cx="162" cy="35" r="10" />
      <circle cx="272" cy="77" r="10" />
      <circle cx="272" cy="207" r="10" />
      <circle cx="162" cy="260" r="10" />
      <circle cx="51" cy="207" r="10" />
      <circle cx="51" cy="77" r="10" />
    </g>

    <!-- Coordinate plane and curve -->
    <g transform="translate(795 74)" stroke-width="2.5">
      <path d="M0 170h294M42 205V0" />
      <path d="M67 169c46-8 75-48 103-100 27 63 57 95 98 101" stroke-width="4" />
      <path d="M286 164l8 6-8 6M36 8l6-8 6 8" />
      <circle cx="170" cy="69" r="6" fill="#f472b6" stroke="none" />
      <text x="177" y="57" fill="#f0abfc" stroke="none" font-family="Arial, sans-serif" font-size="22">f(x)</text>
    </g>

    <!-- Lab flask -->
    <g transform="translate(80 475)" stroke-width="3">
      <path d="M78 0v73L12 184q-10 18 12 18h188q22 0 12-18L158 73V0" />
      <path d="M59 0h118M47 144h142" />
      <path d="M47 144c25-18 46 18 71 0s47 18 71 0" stroke="#6ee7b7" stroke-width="5" />
      <circle cx="93" cy="112" r="7" /><circle cx="142" cy="128" r="5" /><circle cx="155" cy="91" r="8" />
    </g>

    <!-- Geometry and theorem -->
    <g transform="translate(448 500)" stroke-width="3">
      <path d="M0 178L94 0l142 178H0z" />
      <path d="M0 178h30v-30" />
      <path d="M94 0v178" stroke-dasharray="8 10" />
      <text x="255" y="106" fill="#a5f3fc" stroke="none" font-family="Arial, sans-serif" font-size="31">a² + b² = c²</text>
      <text x="255" y="147" fill="#c4b5fd" stroke="none" font-family="Arial, sans-serif" font-size="22">evidence + context → judgment</text>
    </g>

    <!-- Atom model -->
    <g transform="translate(938 555)" stroke-width="2.5">
      <ellipse cx="78" cy="78" rx="76" ry="29" />
      <ellipse cx="78" cy="78" rx="76" ry="29" transform="rotate(60 78 78)" />
      <ellipse cx="78" cy="78" rx="76" ry="29" transform="rotate(120 78 78)" />
      <circle cx="78" cy="78" r="11" fill="#f472b6" stroke="none" />
      <circle cx="151" cy="82" r="7" fill="#67e8f9" stroke="none" />
      <circle cx="30" cy="22" r="7" fill="#c084fc" stroke="none" />
      <circle cx="46" cy="139" r="7" fill="#6ee7b7" stroke="none" />
    </g>

    <!-- Data points connecting observation to conclusion -->
    <g transform="translate(414 235)" stroke-width="3">
      <path d="M0 122l74-62 72 28 77-76 83 39" />
      <circle cx="0" cy="122" r="7" fill="#67e8f9" /><circle cx="74" cy="60" r="7" fill="#60a5fa" />
      <circle cx="146" cy="88" r="7" fill="#c084fc" /><circle cx="223" cy="12" r="7" fill="#f472b6" />
      <circle cx="306" cy="51" r="7" fill="#6ee7b7" />
    </g>
  </g>
</svg>
